<svg width="39" height="38" viewBox="0 0 39 38" fill="none" xmlns="http://www.w3.org/2000/svg">
<path d="M19.5 38C30.2696 38 39 29.4934 39 19C39 8.50659 30.2696 0 19.5 0C8.73045 0 0 8.50659 0 19C0 29.4934 8.73045 38 19.5 38Z" fill="#999999"/>
<path d="M19.5 35.3982C28.7948 35.3982 36.3297 28.0565 36.3297 19C36.3297 9.94353 28.7948 2.60181 19.5 2.60181C10.2052 2.60181 2.67029 9.94353 2.67029 19C2.67029 28.0565 10.2052 35.3982 19.5 35.3982Z" fill="white"/>
<path d="M19.4999 32.7715C27.3058 32.7715 33.6338 26.6058 33.6338 19C33.6338 11.3943 27.3058 5.22858 19.4999 5.22858C11.694 5.22858 5.36609 11.3943 5.36609 19C5.36609 26.6058 11.694 32.7715 19.4999 32.7715Z" fill="#E8E8E8"/>
<path d="M25.6084 11.0639H13.3916C12.2411 11.0639 11.3551 11.9272 11.3551 13.0482V24.9517C11.3551 26.0716 12.2411 26.9361 13.3916 26.9361H25.6084C26.7577 26.9361 27.6449 26.0716 27.6449 24.9517V13.0482C27.6449 11.9272 26.7577 11.0639 25.6084 11.0639ZM19.5122 15.8828C21.3184 15.8828 22.7833 17.2651 22.7833 18.9703C22.7833 20.6756 21.3196 22.0578 19.5122 22.0578C17.7072 22.0578 16.2423 20.6744 16.2423 18.9703C16.2423 17.2651 17.7072 15.8828 19.5122 15.8828ZM25.6084 24.4554C25.6084 24.8033 25.456 24.9517 25.0989 24.9517H13.8999C13.544 24.9517 13.3904 24.8033 13.3904 24.4554V17.5121L14.6591 17.7804C14.5226 18.2115 14.4495 18.6687 14.4495 19.1425C14.4495 21.7799 16.7164 23.921 19.511 23.921C22.3068 23.921 24.5724 21.7811 24.5724 19.1425C24.5724 18.6687 24.4981 18.2127 24.3628 17.7804L25.6072 17.5121V24.4554H25.6084ZM25.6084 15.5277C25.6084 15.8021 25.3805 16.0241 25.0989 16.0241H23.0624C22.7809 16.0241 22.553 15.8021 22.553 15.5277V13.5434C22.553 13.2691 22.7809 13.0471 23.0624 13.0471H25.0989C25.3805 13.0471 25.6084 13.2691 25.6084 13.5434V15.5277Z" fill="black"/>
</svg>
