<svg width="39" height="38" viewBox="0 0 39 38" fill="none" xmlns="http://www.w3.org/2000/svg">
<circle cx="19.5" cy="19.5" r="15.5" fill="#DBDBDB" stroke="white" stroke-width="2"/>
<path d="M19.512 1.00024C29.7779 0.949691 38.2327 9.26877 37.9951 19.4293C37.765 29.106 29.533 37.1002 19.2819 36.9991C9.11984 36.898 0.731909 28.6655 1.00656 18.505C1.26636 8.8716 9.43161 0.949691 19.512 1.00024ZM3.25571 18.9816C3.3151 27.8206 10.5005 34.7387 19.1557 34.8687C28.3304 35.0059 35.6792 28.0084 35.7237 19.0321C35.7682 10.2148 28.5383 3.26777 19.8608 3.12334C10.6861 2.97169 3.33736 10.0342 3.25571 18.9816Z" fill="#999999"/>
<path d="M27.8179 18.7922C28.5415 18.5547 29.2499 18.5102 29.9583 18.7328C31.3294 19.1782 32.2511 20.5957 32.0454 21.9391C31.8169 23.4235 30.6134 24.5293 29.0976 24.5442C26.2792 24.5664 23.4685 24.5516 20.6501 24.5516C20.2921 24.5516 20.155 24.3883 20.155 24.0543C20.155 20.9891 20.1626 17.9239 20.155 14.8586C20.155 14.5618 20.2845 14.4133 20.5587 14.3168C23.7123 13.1813 27.239 15.1852 27.7494 18.4137C27.757 18.5325 27.7874 18.6512 27.8179 18.7922Z" fill="black"/>
<path d="M20.0179 18.577C19.9722 20.3805 19.9265 22.184 19.8808 23.9801C19.8808 24.0543 19.9036 24.1508 19.8655 24.1953C19.7665 24.3141 19.637 24.4996 19.5227 24.4996C19.4161 24.4996 19.2181 24.3067 19.2104 24.1879C19.1343 23.3492 19.0581 22.5106 19.0657 21.6719C19.0886 19.4973 19.1495 17.3227 19.1952 15.1481C19.2028 14.9106 19.2638 14.7102 19.538 14.7176C19.8046 14.725 19.8808 14.9254 19.8808 15.1629C19.8808 16.2985 19.8808 17.434 19.8808 18.5696C19.9188 18.577 19.9722 18.577 20.0179 18.577Z" fill="black"/>
<path d="M18.9439 19.9574C18.8982 21.3231 18.8449 22.6961 18.7992 24.0617C18.7916 24.277 18.7687 24.5219 18.4869 24.5367C18.1746 24.5516 18.1669 24.2844 18.1441 24.0617C17.9232 21.286 18.1517 18.5028 18.1517 15.727C18.1517 15.5117 18.205 15.3039 18.4716 15.3039C18.7306 15.3039 18.7839 15.5117 18.7839 15.727C18.7839 17.1371 18.7839 18.5399 18.7839 19.95C18.8449 19.9574 18.8982 19.9574 18.9439 19.9574Z" fill="black"/>
<path d="M17.1233 20.3656C17.1233 19.1707 17.1233 17.9684 17.1233 16.7735C17.1233 16.5582 17.1081 16.3133 17.428 16.3207C17.7403 16.3281 17.725 16.5805 17.725 16.7809C17.7555 19.1633 17.9459 21.5457 17.7403 23.9281C17.7327 24.0024 17.7555 24.0914 17.725 24.1434C17.6336 24.2844 17.5346 24.4996 17.4127 24.5145C17.1842 24.5516 17.1309 24.3363 17.1233 24.1285C17.0776 22.8668 17.0243 21.6125 16.9709 20.3508C17.0167 20.3656 17.07 20.3656 17.1233 20.3656Z" fill="black"/>
<path d="M16.0874 20.3063C16.0874 19.0817 16.0874 17.857 16.0874 16.6399C16.0874 16.5508 16.0646 16.4469 16.1103 16.3875C16.1788 16.291 16.2855 16.1723 16.3921 16.1574C16.4683 16.15 16.5902 16.2836 16.6435 16.3801C16.6892 16.4692 16.6663 16.5953 16.674 16.7067C16.7197 18.3098 16.7958 19.9203 16.8034 21.5234C16.8111 22.4141 16.7273 23.2973 16.6587 24.1879C16.6511 24.3141 16.4683 24.4254 16.3693 24.5442C16.2779 24.418 16.1103 24.2992 16.1027 24.1656C16.0341 22.8817 15.996 21.5977 15.9503 20.3137C15.996 20.3063 16.0417 20.3063 16.0874 20.3063Z" fill="black"/>
<path d="M15.7904 19.3934C15.7294 20.9445 15.6685 22.5031 15.5999 24.0543C15.5999 24.1434 15.6152 24.2473 15.5695 24.3067C15.5085 24.3957 15.3943 24.5219 15.3181 24.5145C15.2343 24.507 15.1277 24.3735 15.0972 24.277C15.0515 24.136 15.082 23.9801 15.0667 23.8317C14.8535 21.8797 15.0058 19.9277 15.0439 17.9758C15.0515 17.4414 15.0591 16.9145 15.0972 16.3801C15.1048 16.2539 15.2419 16.1352 15.3181 16.0164C15.4095 16.1352 15.5771 16.2539 15.5847 16.3801C15.6076 17.382 15.5999 18.384 15.5999 19.386C15.6609 19.3934 15.7294 19.3934 15.7904 19.3934Z" fill="black"/>
<path d="M14.7393 19.5121C14.6783 21.0633 14.6174 22.6219 14.5336 24.1731C14.526 24.2918 14.3813 24.4106 14.2975 24.5293C14.2213 24.4106 14.0994 24.2918 14.0766 24.1657C13.749 21.6274 14.008 19.0817 14.0842 16.536C14.0842 16.4246 14.2289 16.3207 14.3051 16.2168C14.3813 16.3282 14.5184 16.4395 14.5184 16.5508C14.5336 17.5379 14.526 18.525 14.526 19.5121C14.6098 19.5121 14.6783 19.5121 14.7393 19.5121Z" fill="black"/>
<path d="M13.7185 19.4973C13.65 21.0485 13.589 22.607 13.5129 24.1582C13.5052 24.2844 13.3757 24.4106 13.3072 24.5367C13.2234 24.4031 13.0863 24.2844 13.0711 24.1434C12.9035 22.5551 12.8959 20.9594 12.9797 19.3711C13.0254 18.5844 13.033 17.7903 13.0863 17.0035C13.0939 16.8774 13.231 16.7586 13.2996 16.6399C13.3681 16.766 13.4976 16.8922 13.4976 17.0184C13.5129 17.8422 13.5052 18.6735 13.5052 19.4973C13.5738 19.4899 13.65 19.4973 13.7185 19.4973Z" fill="black"/>
<path d="M12.6826 21.7239C12.6293 22.4067 12.5608 23.3493 12.4694 24.2993C12.4617 24.3809 12.3399 24.4477 12.2713 24.5219C12.2028 24.4328 12.0961 24.3512 12.0809 24.2547C12.0047 23.4086 11.8905 22.5551 11.8981 21.7016C11.9057 20.4547 12.0047 19.2078 12.0809 17.961C12.0885 17.8348 12.2104 17.7086 12.2789 17.5825C12.3475 17.7086 12.4694 17.8348 12.477 17.9684C12.5531 19.1336 12.6065 20.2914 12.6826 21.7239Z" fill="black"/>
<path d="M11.6847 21.7758C11.6009 22.6367 11.5248 23.4457 11.4334 24.2547C11.4257 24.3438 11.3267 24.418 11.2658 24.4996C11.2125 24.418 11.121 24.3363 11.1058 24.2547C10.9001 22.6442 10.8697 21.0336 11.1058 19.4231C11.121 19.334 11.2048 19.2449 11.2582 19.1633C11.3191 19.2449 11.4181 19.3192 11.4257 19.4008C11.5248 20.2024 11.6085 21.0113 11.6847 21.7758Z" fill="black"/>
<path d="M10.664 21.7684C10.5878 22.5922 10.5116 23.4161 10.4278 24.2399C10.4202 24.3215 10.3364 24.3883 10.2831 24.4625C10.2298 24.3883 10.146 24.3215 10.1384 24.2473C9.89462 22.5625 9.92509 20.8778 10.1384 19.193C10.146 19.1188 10.2374 19.0594 10.2983 18.9926C10.344 19.0594 10.4202 19.1188 10.4278 19.1856C10.5116 20.0465 10.5878 20.9075 10.664 21.7684Z" fill="black"/>
<path d="M9.34628 18.9926C9.68905 20.8332 9.73476 22.5922 9.3539 24.3735C8.88164 23.9727 8.85117 19.6828 9.34628 18.9926Z" fill="black"/>
<path d="M8.26451 24.0469C7.91412 22.4883 7.92935 20.9965 8.25689 19.475C8.71392 19.9575 8.73678 23.3567 8.26451 24.0469Z" fill="black"/>
<path d="M7.38099 20.3508C7.739 21.2934 7.75423 22.2285 7.38099 23.1563C7.06107 22.2211 7.0763 21.286 7.38099 20.3508Z" fill="black"/>
</svg>
