<svg width="39" height="38" viewBox="0 0 39 38" fill="none" xmlns="http://www.w3.org/2000/svg">
<path d="M19.5 37C9.29874 37 1 28.9255 1 19C1 9.07445 9.29874 1 19.5 1C29.7013 1 38 9.07445 38 19C38 28.9255 29.7013 37 19.5 37Z" fill="white"/>
<path d="M19.5 1.1875C29.5803 1.1875 37.7812 9.17819 37.7812 19C37.7812 28.8218 29.5803 36.8125 19.5 36.8125C9.41972 36.8125 1.21875 28.8218 1.21875 19C1.21875 9.17819 9.41972 1.1875 19.5 1.1875ZM19.5 0C8.72991 0 0 8.50606 0 19C0 29.4939 8.72991 38 19.5 38C30.2701 38 39 29.4939 39 19C39 8.50606 30.2701 0 19.5 0Z" fill="#999999"/>
<path d="M19.5 3.5708C28.2324 3.5708 35.3352 10.4927 35.3352 19C35.3352 27.5072 28.2311 34.4292 19.5 34.4292C10.7689 34.4292 3.66479 27.5072 3.66479 19C3.66479 10.4927 10.7677 3.5708 19.5 3.5708Z" fill="#DBDBDB"/>
<path d="M19.5 3.56964C10.7689 3.56964 3.66357 10.4928 3.66357 19C3.66357 23.281 5.46489 27.1593 8.36551 29.9571L30.7454 8.15102C27.874 5.32595 23.8936 3.56964 19.5 3.56964Z" fill="#E8E8E8"/>
<path d="M30.5248 15.2321C30.5248 15.2321 30.3188 13.7144 29.6838 13.0459C28.8782 12.1695 27.9763 12.1648 27.562 12.1149C24.598 11.8916 20.1532 11.8916 20.1532 11.8916H20.1434C20.1434 11.8916 15.6987 11.8916 12.7347 12.1149C12.3215 12.1648 11.4196 12.1695 10.6128 13.0459C9.97906 13.7144 9.77188 15.2321 9.77188 15.2321C9.77188 15.2321 9.55981 17.0133 9.55981 18.7934V20.463C9.55981 22.2454 9.77188 24.0255 9.77188 24.0255C9.77188 24.0255 9.97785 25.5431 10.6128 26.2093C11.4196 27.0857 12.4763 27.0584 12.9479 27.1498C14.642 27.3184 20.1483 27.3707 20.1483 27.3707C20.1483 27.3707 24.598 27.3636 27.562 27.1415C27.9751 27.0893 28.8782 27.0845 29.6838 26.2093C30.3176 25.5419 30.5248 24.0255 30.5248 24.0255C30.5248 24.0255 30.7368 22.2443 30.7368 20.463V18.7934C30.7368 17.0133 30.5248 15.2321 30.5248 15.2321ZM17.5036 23.5018V15.7617L24.1239 19.6318L17.5036 23.5018Z" fill="#F2F2F2"/>
<path d="M29.8764 14.6003C29.8764 14.6003 29.6705 13.0827 29.0355 12.4141C28.2299 11.5378 27.328 11.533 26.9137 11.4831C23.9497 11.2599 19.5049 11.2599 19.5049 11.2599H19.4951C19.4951 11.2599 15.0503 11.2599 12.0863 11.4831C11.6732 11.533 10.7713 11.5378 9.9645 12.4141C9.33075 13.0827 9.12356 14.6003 9.12356 14.6003C9.12356 14.6003 8.9115 16.3816 8.9115 18.1616V19.8313C8.9115 21.6137 9.12356 23.3938 9.12356 23.3938C9.12356 23.3938 9.32953 24.9114 9.9645 25.5776C10.7713 26.4539 11.828 26.4266 12.2996 26.5181C13.9937 26.6879 19.5 26.7401 19.5 26.7401C19.5 26.7401 23.9497 26.733 26.9137 26.511C27.3268 26.4587 28.2299 26.454 29.0355 25.5788C29.6692 24.9114 29.8764 23.395 29.8764 23.395C29.8764 23.395 30.0885 21.6137 30.0885 19.8325V18.1628C30.0885 16.3816 29.8764 14.6003 29.8764 14.6003ZM16.8553 22.8701V15.1299L23.4756 19L16.8553 22.8701Z" fill="black"/>
</svg>
